<?xml version="1.0" encoding="UTF-8"?>
<!DOCTYPE svg PUBLIC "-//W3C//DTD SVG 1.1//EN" "http://www.w3.org/Graphics/SVG/1.1/DTD/svg11.dtd">
<!-- Creator: CorelDRAW 2020 (64-Bit) -->
<svg xmlns="http://www.w3.org/2000/svg" xml:space="preserve" width="284.317mm" height="431.768mm" version="1.1" style="shape-rendering:geometricPrecision; text-rendering:geometricPrecision; image-rendering:optimizeQuality; fill-rule:evenodd; clip-rule:evenodd"
viewBox="0 0 26427.75 40133.63"
 xmlns:xlink="http://www.w3.org/1999/xlink"
 xmlns:xodm="http://www.corel.com/coreldraw/odm/2003">
 <defs>
  <style type="text/css">
   <![CDATA[
    .fil2 {fill:#13375B;fill-rule:nonzero}
    .fil7 {fill:#184655;fill-rule:nonzero}
    .fil8 {fill:#355389;fill-rule:nonzero}
    .fil4 {fill:#3C8F7C;fill-rule:nonzero}
    .fil9 {fill:#466EB6;fill-rule:nonzero}
    .fil5 {fill:#50BFA5;fill-rule:nonzero}
    .fil10 {fill:#96D9C9;fill-rule:nonzero}
    .fil0 {fill:#B75742;fill-rule:nonzero}
    .fil6 {fill:#F47458;fill-rule:nonzero}
    .fil1 {fill:#F48C7F;fill-rule:nonzero}
    .fil3 {fill:#F7A491;fill-rule:nonzero}
    .fil11 {fill:#F7CC7F;fill-rule:nonzero}
    .fil12 {fill:white;fill-rule:nonzero}
   ]]>
  </style>
 </defs>
 <g id="Layer_x0020_1">
  <metadata id="CorelCorpID_0Corel-Layer"/>
  <path class="fil0" d="M20232.47 9506.86c0,0 512.5,185.58 990.64,930.87 478.08,745.41 689.26,2939.22 689.26,2939.22l-914.23 481.64 -765.67 -4351.72z"/>
  <path class="fil1" d="M21072.24 13440.5c0,0 235.1,1696.3 628.95,1784.14 393.86,87.9 1047.69,-2424.17 935.2,-3821.34 -112.49,-1397.1 -231.84,-1562.31 -119.36,-1823.83 112.49,-261.52 337.41,-949.76 337.41,-1225.09 0,-275.26 -652.18,-1083.99 -794.51,-1073.63 -142.28,10.31 -210.81,591.88 -210.81,591.88l-204.01 1727.51 -572.85 3840.36z"/>
  <path class="fil2" d="M21210.96 4482.11c-340.36,-631.03 -718.15,-994.08 -1399.23,-1073.16 -1929.09,-224.02 -1824.85,1538.8 -4521.26,1920.38 -837.81,118.53 -1616.27,232.56 -2315.72,640.38 -1263.12,736.47 -1739.95,1917.84 -902.44,3842.49 2051.47,4712.71 7086.23,711.95 7707.96,-216.08 363.99,-543.18 659.1,-1137.42 942.42,-1723.78 479.09,-991.77 1010.95,-2420.45 488.27,-3390.23z"/>
  <path class="fil3" d="M13502.66 36454.43c0,0 -137.37,1365.42 -490.53,1615.99 -353.16,250.86 -824.07,1178.17 -588.62,1679.54 73.45,156.79 220.71,247.3 388.29,297.77 496.08,149.57 1024.04,-102.3 1235.22,-566.63 118.05,-259.04 221.65,-604.97 242.33,-1040.82 53.13,-1109.29 406.29,-1673.32 406.29,-1673.32l-1192.98 -312.52z"/>
  <path class="fil3" d="M18929.31 37013.19c0,0 111.18,1377.56 21.03,1825.5 -48.58,239.71 -317.74,733.26 -194.17,958.83 123.62,225.62 264.65,282.02 264.65,282.02l3203.35 50.18c174.51,2.96 59.35,-106.92 -81.27,-207.91 -230.54,-165.27 -416.13,-274.79 -1152,-622.38 -47.86,-22.57 -222.66,-131.15 -285.57,-168.52 -159.7,-95.43 -320.04,-245.29 -458.12,-395.45 -229.89,-250.21 -250.21,-1463.51 -250.21,-1463.51l-1067.7 -258.74z"/>
  <path class="fil4" d="M21432.98 18702.19c0,0 228.88,2207.2 138.67,3702.81 -89.5,1486.43 -1536.24,15058.08 -1536.24,15058.08l-1412.69 78.07c0,0 -296.12,-5677.81 -242.98,-6467.11 52.83,-789.6 472.21,-2111.12 472.21,-2111.12l-140.68 -4583.86 1782.55 -6022.14 939.17 345.28z"/>
  <path class="fil5" d="M17280.93 18231.64c0,0 -1112.31,1635.64 -1377.27,2988.91 -264.6,1353.63 194.46,5513.56 -314.77,7287.21 -275.8,960.14 -1321.17,2443.01 -1480.21,3683.5 -158.69,1240.79 -782.43,4491.1 -782.43,4491.1l1412.33 273.13 3281.77 -8116.85 2375.07 -6769.45c132.51,-377.09 233.45,-764.37 301.98,-1157.51l556.51 -3187.71 -3972.98 507.65z"/>
  <path class="fil6" d="M18181.66 8926c0,0 -1131.62,85.41 -1556.92,728.58 -467.6,707.49 941.77,5607.14 1047.74,6396.74 105.84,789.66 -868.03,2631.56 -868.03,2631.56 0,0 3639.85,658.45 4628.53,19.32 0,0 105.91,-5677.82 0,-6241.85 -105.97,-563.97 -988.68,-2857.59 -1200.51,-3083.21 -211.82,-225.57 -2050.81,-451.13 -2050.81,-451.13z"/>
  <path class="fil3" d="M17201.2 9407.4c0,0 -586.6,-54.26 -631.2,422.1 -32.82,353.93 0,472.7 0,472.7 0,0 383.66,2291.78 2010.77,3997.74 1627.12,1705.84 2208.15,1353.63 2339.95,1157.86 342.73,-509.9 879.16,-2540.33 1005.38,-4797.76l66.58 -1168.05c0,0 508.94,-950.06 246.59,-1543.65 -203.95,-461.14 -223.61,-527.31 -321.64,-657.27 -189.91,-251.21 -321.71,-261.52 -321.71,-44.72 0,216.74 32.76,173.26 0,216.74 -103.31,135.89 94.77,309.74 94.77,671.07 0,361.33 -268.92,175.51 -268.92,-36.14 0,-211.64 100.04,-325.19 10.48,-325.19 -89.51,0 -226.58,129.07 -263.6,469.73 -22.33,204.77 -81.97,461.31 -72.14,782.84 6.57,213.36 98.38,471.33 54.73,704.24 -109.82,584 -933.54,3977.3 -1051.94,3977.3 -262.29,0 -2237.35,-4026.82 -2898.12,-4299.54z"/>
  <path class="fil3" d="M18671.94 7003.6c0,0 -7.58,42.35 -21.32,114.44 -65.93,345.93 -318.74,1493.3 -489.58,1808.79 -206.25,381.23 706.96,1597.02 1585.77,1448.64 261.7,-44.13 -221,-1117.11 -198.02,-1230.78 44.54,-217.56 104.9,-514.33 166.56,-818.67 34.77,-171.66 69.84,-345.75 102.95,-509.37 93.77,-464.87 170.54,-845.15 170.54,-845.15l-1316.9 32.11z"/>
  <path class="fil6" d="M18650.62 7118.04c13.74,-72.09 21.32,-114.44 21.32,-114.44l1316.9 -32.11c0,0 -76.77,380.28 -170.54,845.15 -32.76,162.72 -67.88,335.74 -102.66,506.52 -203.29,-29.26 -415.76,-125.88 -628.6,-308.02 -232.49,-198.55 -384.67,-437.21 -476.48,-692.04 16.11,-81.33 29.86,-151.41 40.04,-205.07z"/>
  <path class="fil3" d="M19720.92 4053.12c0,0 -537.14,72.86 -926.01,564.51 -389.23,491.71 -808.67,2012.08 158.04,2838.7 966.71,826.56 1921.87,-109.11 2063.2,-1101.17 141.69,-992 113.2,-2337.87 -1295.23,-2302.03z"/>
  <path class="fil2" d="M19922.61 4057.99c0,0 -835.86,1440.11 -1429.1,1506.87 -593.17,66.81 -959.77,699.38 -959.77,699.38 0,0 212.12,-1770.23 799.43,-2111.65 587.66,-341.31 1589.44,-94.6 1589.44,-94.6z"/>
  <path class="fil4" d="M14143.1 39237.16c-769.58,137.07 -1281.48,-302.69 -1548.09,-631.91 -195.41,372.82 -315.42,838.46 -171.49,1144.71 126.59,269.93 471.87,343.68 763.42,354.16 308.19,11.19 596.43,-146.55 749.61,-408.89 71.14,-122.32 144.88,-274.79 206.55,-458.07z"/>
  <path class="fil4" d="M20704.99 39130.53c-847.29,212.18 -1473.34,67.88 -1823.83,-70.13 -90.22,250.15 -209.87,564.03 -146.6,745 77.71,221.36 188.54,271.53 286.27,274.13 773.91,19.67 2834.8,46.56 3424.71,54.08 82.34,1.37 127.89,-92.76 74.76,-154.72 -146.19,-170.54 -1752.04,-810.62 -1815.3,-848.36z"/>
  <path class="fil0" d="M17841 14218.31c0,0 1736.64,-1039.33 1891.42,-1431.58 0,0 -1799.96,-3482.58 -2453.8,-3558.22 -654.19,-75.76 -880.46,693.04 -760.45,1569.12 120.36,876.08 1108.39,3210.81 1322.82,3420.68z"/>
  <path class="fil4" d="M19092.62 5759.67c0,0 -209.22,855.17 -541.41,1180.37 0,0 218.1,666.57 787.35,833.96 569.6,167.46 1202.46,-73.45 1448.76,-589.62 245.89,-516.17 284.93,-825.9 284.93,-825.9 0,0 -9.18,-113.67 -278.05,-94.24 -268.93,19.43 -1320.22,-55.45 -1701.58,-504.56z"/>
  <path class="fil4" d="M19162.82 6087.48l-70.2 -327.8c0,0 -515.45,-321.64 -704.36,-264.01l32.82 98.86c0,0 618.76,284.03 741.74,492.95z"/>
  <path class="fil4" d="M18727.97 6843.67c0,0 -256.43,-85.89 -339.71,-424.89l-67.23 -111.9 -134.75 0 364.94 633.16 176.76 -96.37z"/>
  <path class="fil3" d="M18655.82 5887.27c48.58,256.72 -48.51,492.18 -216.74,525.88 -167.87,33.7 -342.96,-147.14 -391.19,-403.92 -48.51,-256.72 48.51,-492.18 216.74,-525.88 167.93,-33.7 343.02,147.13 391.18,403.92z"/>
  <path class="fil3" d="M3891.55 37497.2c0,0 74.46,1316.9 75.05,1319.57 27.25,167.22 135.11,580.38 135.11,732.2 0,571.2 -2540.33,-484.66 -1971.02,-737.48 51.59,-22.92 321.52,-196.42 338.47,-390.53 26.18,-299.43 92.4,-905.41 92.4,-905.41l1329.99 -18.36z"/>
  <path class="fil7" d="M2137.02 38805.93c0,0 596.43,174.75 901.97,218.4 305.48,43.6 708.27,-324.01 924.36,-224.62 237.76,109.17 213.78,1185.7 213.78,1185.7 0,0 -3214.43,233.5 -4113.84,-56.04 -356.3,-114.8 854.34,-716.5 2073.74,-1123.44z"/>
  <path class="fil3" d="M9488.68 37623.43c0,0 74.75,1316.9 75.11,1319.87 27.19,167.28 135.11,580.08 135.11,732.26 0,570.9 -2540.39,-484.66 -1971.09,-737.82 51.48,-22.93 401.67,-325.62 418.73,-519.73 25.89,-299.37 12.15,-775.85 12.15,-775.85l1329.99 -18.72z"/>
  <path class="fil7" d="M7734.03 38932.15c0,0 596.49,174.81 902.09,218.4 305.59,43.6 708.26,-323.95 924.35,-224.62 237.77,109.17 247.31,1093.23 247.31,1093.23 0,0 -3403.74,246.95 -4204.17,15.1 -359.44,-103.96 911.26,-695.18 2130.43,-1102.12z"/>
  <path class="fil8" d="M5462.92 18613.99l-1074.28 463.33 -2259.27 10789.7 91.52 8088.6 1811.33 42c0,0 842.38,-7075.4 842.38,-7623.67 0,-548.56 3901.84,-9595.76 3901.84,-9595.76l-3313.52 -2164.2z"/>
  <path class="fil9" d="M5922.65 19319c0,0 1160.47,8201.8 1160.47,9602.93 0,1401.19 641.74,9244.26 641.74,9244.26l1815.31 -10.54c0,0 131.2,-2390.47 325.61,-5907.35 30.51,-550.88 -39.34,-1662.18 0,-2232.43 282.37,-4101.23 841.13,-7962.07 574.22,-9492.46 -42.94,-246.24 -123.63,-890.59 -280.71,-1053.26 -1189.01,-1229.65 -4236.63,-151.16 -4236.63,-151.16z"/>
  <path class="fil5" d="M9282.13 6775.43c0,0 1252.64,174.21 1582.51,416.29 371.17,272.72 783.38,882.89 783.38,882.89 0,0 -1538.26,7270.39 -1540.87,8493.82 -2.31,946.69 333.14,3270.64 333.14,3270.64 0,0 -4648.19,756.49 -6408.41,61.66 0,0 480.75,-3183.74 555.8,-3953.02 70.49,-722.07 665.02,-7325.48 816.19,-7786.45 137.43,-418.19 388.23,-1169.64 1237.53,-1354.99 849.31,-185.29 2640.73,-30.86 2640.73,-30.86z"/>
  <path class="fil3" d="M8940.11 4817.96l309.85 2030.27c0,0 -1132.26,2417.36 -1808.43,2207.73 -567.28,-175.92 -218.04,-2314.88 -218.04,-2314.88 0,0 308.84,-1148.62 216.38,-1723.49 -92.77,-574.81 1500.23,-199.62 1500.23,-199.62z"/>
  <path class="fil6" d="M7439.88 5017.58c-92.77,-574.81 1500.23,-199.62 1500.23,-199.62 0,0 -34.77,219.59 -70.55,314.3 -228.17,603.84 -1014.51,901.73 -1495.26,919.02 47.86,-309.91 103.6,-797.94 65.58,-1033.7z"/>
  <path class="fil3" d="M8934.19 1973.93c42.94,-21.32 626.64,2254.88 105.91,2960.78 -521.03,705.96 -1656.61,1049.75 -2131.09,597.14 -524.99,-500.59 -792.61,-2989.1 56.69,-3751.86 849.01,-762.76 1968.49,193.93 1968.49,193.93z"/>
  <path class="fil2" d="M7173.62 501.6c734.21,-31.51 1246.41,441.54 1438.21,606.69 329.23,0.23 791.61,126.93 1335.26,823.53 668.29,856.59 373.83,1926.49 -220.35,2503.96 -594.18,577.48 -713.83,860.8 -713.83,860.8 -102.3,-217.98 -103.31,-447.76 -105.91,-688.66 -1.37,-144.53 11.43,-302.57 56.03,-436.38 118.06,-353.1 -402.32,-517.77 -573.15,-780 -131.86,-201.98 -114.8,-759.38 -368.27,-1062.25 -54.73,-65.39 -191.5,-173.37 -267.91,-211.64 -232.5,-116.75 -599.4,-160.7 -1040.46,-6.69 -441.35,153.89 -1191.33,-1538.38 460.37,-1609.35z"/>
  <path class="fil1" d="M7117.22 12282.29c-672.26,234.22 -1168.99,398.77 -1168.99,398.77l-516.17 -1696.54 106.91 -3029.37 -1312.34 1804.46c0,0 -431.52,3740.48 394.51,4342.31 504.67,367.25 1775.96,1.3 3097.49,-556.69l-601.41 -1262.95z"/>
  <path class="fil4" d="M6438.1 6865.17c0,0 -1570.36,317.02 -2160.93,1266.26 -548.28,881.11 -405.94,4541.99 -382.65,5063.43l1949.12 -997.46c0,0 -237.42,-1240.01 -279.71,-1658.27 -267.26,-2643.22 874.18,-3673.97 874.18,-3673.97z"/>
  <path class="fil3" d="M4540.16 11731.58c0,0 3577.83,3759.38 4926.25,3452.43 880.1,-200.69 1837.28,-3926.84 1837.28,-3926.84l-1408.36 -2359.61 -1069.66 3913.15c-302.04,-238.95 -3674.26,-1637.42 -3886.15,-1993.24 -229.82,-386.92 -878.15,-1091.69 -921.75,-1139.08 -43.3,-47.45 -303.64,-140.1 -373.82,-70.37 -125.28,124.69 -112.84,657.8 -141.87,798.07 -29.02,140.27 16.65,238.19 -6.45,369.15 -145.07,824.49 1044.54,956.34 1044.54,956.34z"/>
  <path class="fil4" d="M10745.28 7191.67c-96.78,11.85 -188.25,44.72 -268.92,104.61 -373.83,278.29 -664.32,669.94 -829.29,1106.74 -239.37,632.81 -1029.67,4092.57 -1029.67,4092.57l2114.74 1507.29c323.66,-875.73 612.9,-1766.56 869.32,-2664.02 176.11,-615.81 339.71,-1239.19 441.07,-1872.23 103.59,-646.84 142.93,-1416.42 -372.53,-1908.3 -219.05,-209.1 -600.76,-406.29 -924.71,-366.67z"/>
  <path class="fil1" d="M12214 9993.05c-33.76,-150.28 61.66,-537.67 -73.15,-613.14 -145.9,-81.74 -485.31,163.07 -671.89,316.07 59.05,-78.48 167.28,-211.29 296.76,-316.07 158.75,-128.06 7.23,-397.64 -224.91,-137.48 0,0 -622.38,418.32 -748.97,706.61 -126.58,288.35 -169.53,705.84 -169.53,705.84 -256.78,211.71 -2494.49,962.21 -3496.91,1331.83l1525.17 720.59 175.09 103.42c1513.63,-725.2 2680.01,-1293.62 2680.01,-1293.62 0,0 773.54,-228.53 773.54,-875.43 0,-142.93 -31.16,-498.28 -65.22,-648.62z"/>
  <path class="fil3" d="M4939.52 10817.48c0,0 -134.75,-780.53 -352.8,-1033.64 -218.04,-253.11 -218.04,-253.11 -218.04,-253.11 0,0 -320.11,-242.62 -449.95,-112.55 -130.13,130.08 216.09,427.14 216.09,427.14l804.69 972.15z"/>
  <path class="fil10" d="M6297.12 4070.78c0,0 110.84,-263.71 405.94,-210.99 295.47,52.72 1448.7,-11.49 1448.7,-11.49 0,0 -17.35,507.4 90.21,723.43 83.94,168.05 627.59,560.54 627.59,560.54 0,0 -416.77,608.46 -1534.59,777.22 -1118.17,168.71 -1037.85,-1838.7 -1037.85,-1838.7z"/>
  <path class="fil10" d="M8641.39 3281.83l-77.07 40.76c-106.56,56.27 -196.13,139.97 -259.74,242.33l-282.96 456.64 105.26 186.28 514.52 -926.01z"/>
  <path class="fil10" d="M8675.45 5090.33l194.11 41.93c0,0 189.91,-1042.64 162.01,-1070.48 -27.54,-27.73 -32.76,-78.91 -32.76,-78.91l-143.94 38.92 -179.42 1068.54z"/>
  <path class="fil3" d="M8468.25 3799.54c28.19,282.72 184.57,498.64 348.89,482.22 164.26,-16.34 274.44,-258.8 246.24,-541.57 -28.19,-282.73 -184.28,-498.64 -348.59,-482.29 -164.26,16.41 -274.79,258.85 -246.54,541.64z"/>
  <polygon class="fil11" points="24763.91,6064.2 23360.77,5524.57 22314.38,6865.17 23459.16,5840.06 24800.64,6326.49 26427.75,5057.33 "/>
  <polygon class="fil11" points="22657.71,7597.01 23895.24,7739.53 24274.63,8430.03 26046.7,8013.55 24176.31,8665.84 23782.82,7868.95 "/>
  <polygon class="fil11" points="21912.37,5389.16 22108.13,3984.36 23562.1,3490.64 23873.92,2562.49 23734.89,3610.53 22314.38,4066.75 "/>
  <path class="fil0" d="M17853.79 27980.81c0,531.57 -430.87,962.45 -962.44,962.45 -531.57,0 -962.74,-430.88 -962.74,-962.45 0,-531.86 431.17,-962.74 962.74,-962.74 531.57,0 962.44,430.88 962.44,962.74z"/>
  <path class="fil12" d="M16891.35 28521.56c-298.07,0 -540.76,-242.69 -540.76,-540.76 0,-298.36 242.69,-540.69 540.76,-540.69 298.07,0 540.76,242.33 540.76,540.69 0,298.07 -242.69,540.76 -540.76,540.76z"/>
  <path class="fil0" d="M10851.49 19279.31c0,573.22 -464.33,1037.84 -1037.49,1037.84 -572.85,0 -1037.56,-464.63 -1037.56,-1037.84 0,-572.86 464.7,-1037.49 1037.56,-1037.49 573.16,0 1037.49,464.63 1037.49,1037.49z"/>
  <path class="fil12" d="M9814 19804.02c-289.24,0 -524.34,-235.17 -524.34,-524.7 0,-289.18 235.1,-524.34 524.34,-524.34 289.25,0 524.64,235.16 524.64,524.34 0,289.54 -235.39,524.7 -524.64,524.7z"/>
  <path class="fil0" d="M19245.74 3389.35c0,615.32 -498.7,1114.14 -1114.2,1114.14 -615.21,0 -1113.96,-498.82 -1113.96,-1114.14 0,-615.28 498.75,-1114.15 1113.96,-1114.15 615.51,0 1114.2,498.87 1114.2,1114.15z"/>
  <path class="fil12" d="M18131.54 4081.56c-381.71,0 -692.21,-310.51 -692.21,-692.21 0,-381.71 310.51,-692.22 692.21,-692.22 381.65,0 692.22,310.51 692.22,692.22 0,381.71 -310.57,692.21 -692.22,692.21z"/>
  <polygon class="fil0" points="11968.06,16634.37 10670.83,17139.7 11069.59,17560.74 10436.67,18241.82 11575.87,17655.51 11122.37,17233.83 "/>
  <polygon class="fil0" points="19329.38,0 18353.2,992.65 18889.33,1213.07 18591.26,2093.89 19390.04,1092.16 18803.38,893.2 "/>
  <polygon class="fil0" points="21287.32,2027.84 19896.37,1971.27 20093.09,2516.59 19240.52,2887.33 20519.05,2806.3 20272.46,2238.12 "/>
  <polygon class="fil0" points="13384.95,27071.86 14669.4,27608.64 14674.67,27029.21 15603,26978.09 14376.25,26609.17 14409.71,27227.95 "/>
  <polygon class="fil0" points="14722.88,24894.16 14739.88,26286.17 15274.07,26061.26 15689.24,26893.15 15540.98,25620.49 14986.48,25896.64 "/>
  <path class="fil0" d="M5717.69 6204.88c-139.37,-68.72 -347.58,-32.4 -496.8,-9.01 -515.81,80.79 -609.58,330.77 -771.88,656.26 -195.78,392.37 -567.94,414.05 -677.82,718.34 -74.4,206.72 56.39,416.89 -0.65,622.14 -49.81,178.36 -208.86,302.81 -272.48,475.89 -36.6,99.22 -27.24,201.1 -40.34,304.11 -34.35,271.65 -356.54,366.3 -482.11,821.53 -62.13,225.03 -67.11,461.85 -69.89,693.75 -0.95,80.26 123.03,80.14 124.56,0 9.78,-489.87 35.72,-789 332.31,-1108.46 350.25,-377.38 153.42,-492.6 290.54,-744.04 42,-76.77 97.74,-145.13 144.95,-218.46 279.41,-433.3 -134.75,-689.73 236.47,-988.22 121.61,-97.92 266.55,-167.16 373.47,-283.14 123.63,-133.69 179.01,-307.96 266.56,-463.92 269.87,-481.69 862.45,-346.65 1043.11,-434.08 16.42,-7.87 16.05,-34.83 0,-42.7l0 0z"/>
  <path class="fil0" d="M10323.24 5905.33c33.76,179.13 150.21,333.26 309.85,421.52 302.69,167.34 666.32,-24.41 833.6,234.28 51.77,79.9 78.67,173.25 128.84,254.06 232.79,374.77 795.82,115.5 824.07,505.03 13.44,186.11 -69.55,373.23 1.95,555.32 75.76,193.04 323.3,260.4 301.98,495.32 -19.97,220.76 -149.51,412.45 -128.54,640.61 12.79,137.66 63.32,265.85 104.31,396.82 202.94,650.63 109.82,1106.32 105.26,1299.43 -1.95,73.09 106.57,86.42 126.23,17.11 123.63,-439.52 10.85,-1052.36 -129.18,-1486.96 -119.36,-370.39 -31.45,-428.21 43.3,-722.84 50.47,-199.09 19.97,-369.04 -132.5,-512.2 -80.68,-75.89 -162.3,-138.08 -176.76,-255.9 -23.58,-191.51 134.45,-564.03 -154.78,-736.11 -147.85,-88.02 -328.87,-71.96 -488.56,-121.84 -208.93,-65.1 -225.92,-271.77 -344.27,-425.6 -139.38,-181.08 -360.74,-166.22 -566.34,-169.83 -270.53,-4.8 -488.28,-147.9 -568.95,-412.98 -17.72,-57.87 -100.65,-33.53 -89.5,24.75l0 0z"/>
 </g>
</svg>
