<svg xmlns="http://www.w3.org/2000/svg" viewBox="0 0 363.87 375.35"><defs><style>.cls-1{fill:#231e31;}.cls-2{fill:#6b37c8;}.cls-3{fill:#9057ec;}.cls-4{fill:#c75e21;}.cls-5{fill:#181843;}.cls-6{fill:#f39e6e;}.cls-7{fill:#fff;}.cls-8{fill:#e87555;}.cls-9{fill:#7bb7f0;}.cls-10{fill:#4d99e0;}.cls-11{fill:#b2684b;}.cls-12{fill:#e4effd;}.cls-13{fill:#cd6338;}.cls-14{fill:#ff718e;}.cls-15{fill:#d94277;}.cls-16{fill:#290920;}.cls-17{fill:#954614;}</style></defs><g id="Layer_2" data-name="Layer 2"><g id="DESIGNED_BY_FREEPIK" data-name="DESIGNED BY FREEPIK"><path class="cls-1" d="M186.93,276.55c4.16,16,6.15,98.67,6.15,98.67H78s-8.94-73.49,5-95.21Z"/><path class="cls-2" d="M65,155s-4,5.67-6.7,5.7S41.41,140.55,40.6,138.79,46.13,133,46.13,133Z"/><path class="cls-3" d="M276.52,106.65C208.81,87.74,126,90.57,91.09,102s-46.86,23.12-45,31l11,19.9s124-16.19,173.11-2.56Z"/><path class="cls-4" d="M176.55,121.38c18.64,8.44,51.71,33.09,51.71,33.09l-12,44-31.46-15.43L172.46,126Z"/><polygon class="cls-1" points="84.32 269.05 83.73 282.7 193.17 279.25 192.22 267.07 84.32 269.05"/><path class="cls-4" d="M191.89,255.15l-7.07-72.07-8.27-61.7c-16.53-7.46-27.13-12.2-59.64-11.55,0,0-25.31,4.73-42.9,18.54a365.52,365.52,0,0,1,2.68,52.55c-.91,38.43-4.72,84.56,7.63,88.13l107.9-2S191.9,261.72,191.89,255.15Z"/><path class="cls-1" d="M76.11,199.7c-.41,12.16-.81,24.29-.65,34.94l8.06-46.46Z"/><path class="cls-5" d="M164.07,28.47s9.36-6.78,16-2.34-5.21,39.77-5.21,39.77h-3.36Z"/><path class="cls-6" d="M167.88,66.06s15.8-7.54,16.53,6.4c.81,15.33-19.1,8.12-19.1,8.12Z"/><path class="cls-7" d="M116.64,106.46c-10.4.59-9.6,8.68-9.71,12.91-.19,7.26,5,24.83,11.63,23.37s14.55-11.31,14.55-11.31,10.44,12.39,16.43,9.41,3.05-29-8.14-32.59S116.64,106.46,116.64,106.46Z"/><path class="cls-6" d="M114.39,114.49l-1.77-41.31s-16.55,3.3-16.05-9.79C97,51.73,109.67,52.55,115,58.78c0,0-5.38-41.67,29.84-40.15s29.09,49.21,27.66,60.76c-2.52,20.34-18.41,28.11-29.08,27.69l-.88,12.56s-.64,11-10.94,10C117.84,128.37,114.39,114.49,114.39,114.49Z"/><path class="cls-5" d="M113.44,57.29s5.25,3.23,4.79,12.91l3,.73,1.23-19s8-3.38,9.89-16.17l-29.62-4.52s.6,13.08,4.12,23.16A16.2,16.2,0,0,1,113.44,57.29Z"/><path class="cls-5" d="M136,60.11a3.77,3.77,0,1,0,4.66-2.6A3.77,3.77,0,0,0,136,60.11Z"/><path class="cls-5" d="M154.68,62.1a3.77,3.77,0,1,0,4.66-2.6A3.78,3.78,0,0,0,154.68,62.1Z"/><path class="cls-5" d="M152.21,75a4.81,4.81,0,0,1-1.94-.47,1,1,0,1,1,.87-1.76c.43.21,1.21.39,1.42.18,0,0,1.07-1.19-2.32-8.17a1,1,0,0,1,1.76-.86c2.79,5.76,3.39,9,1.93,10.42A2.36,2.36,0,0,1,152.21,75Z"/><path class="cls-5" d="M150,81.68a.55.55,0,0,1-.18,0,14,14,0,0,1-8.42-5.24A1,1,0,0,1,143,75.24a12,12,0,0,0,7.23,4.5,1,1,0,0,1,.77,1.15A1,1,0,0,1,150,81.68Z"/><path class="cls-5" d="M111,67.52h0a1,1,0,0,1-.93-1A5.43,5.43,0,0,0,103,61a1,1,0,0,1-.56-1.88,7.4,7.4,0,0,1,9.5,7.46A1,1,0,0,1,111,67.52Z"/><path class="cls-5" d="M106.4,65.67a1,1,0,0,1-.69-1.67l2.63-2.62a1,1,0,0,1,1.38,1.38l-2.63,2.62A.94.94,0,0,1,106.4,65.67Z"/><path class="cls-5" d="M146.8,52.75a1,1,0,0,1-.59-.19c-2.81-2.09-7.08-3.48-10.66-1.13a1,1,0,0,1-1.36-.28,1,1,0,0,1,.28-1.35c4.42-2.91,9.57-1.3,12.91,1.18a1,1,0,0,1,.2,1.37A1,1,0,0,1,146.8,52.75Z"/><path class="cls-5" d="M166.23,54.51a1,1,0,0,1-.75-.35,7.46,7.46,0,0,0-9.77-1.22,1,1,0,0,1-1.36-.21,1,1,0,0,1,.21-1.37A9.47,9.47,0,0,1,167,52.91a1,1,0,0,1-.13,1.38A1,1,0,0,1,166.23,54.51Z"/><path class="cls-5" d="M143.38,107.08c-10-.87-19.17-9.67-19.17-9.67s6.46,12.56,18.73,15.9Z"/><path class="cls-8" d="M137.7,72.85a5.43,5.43,0,1,1-2.64-7.21A5.42,5.42,0,0,1,137.7,72.85Z"/><path class="cls-8" d="M169.66,78.78A5.43,5.43,0,1,1,167,71.57,5.43,5.43,0,0,1,169.66,78.78Z"/><path class="cls-7" d="M126.59,73.56,115,58.78l-1.52-1.49s5.8,3.59,16,16.87Z"/><polygon class="cls-7" points="112.62 73.18 120.43 86.09 118.9 87.18 111.58 73.34 112.62 73.18"/><path class="cls-9" d="M172.46,79.39s-14.78-6.35-18.67-7c-3.39-.56-22.81.78-27.2,1.16-2.79,4.33-7.69,13.62-7.69,13.62,2.88,8.56,10,19,24.71,20.09C170.14,109.27,172.46,79.39,172.46,79.39Z"/><path class="cls-10" d="M135,80.77a.69.69,0,0,1-.48-.52.67.67,0,0,1,.53-.78l.67-.13a.66.66,0,0,1,.77.54.67.67,0,0,1-.54.78l-.64.12A.8.8,0,0,1,135,80.77Z"/><path class="cls-10" d="M139.72,80.1a.68.68,0,0,1-.49-.59.66.66,0,0,1,.61-.72l1.39-.11a.68.68,0,0,1,.71.63.67.67,0,0,1-.63.71c-.45,0-.9.06-1.35.1A.63.63,0,0,1,139.72,80.1Zm5.51-.18a.67.67,0,0,1,.19-1.31l1.4,0a.67.67,0,0,1,.63.71.66.66,0,0,1-.7.63c-.45,0-.91,0-1.36,0A.9.9,0,0,1,145.23,79.92Zm5.5.45a.66.66,0,0,1,.26-1.3c.46.06.93.13,1.39.21a.67.67,0,0,1-.22,1.32q-.67-.12-1.35-.21Zm12,3.24-.08,0-1.27-.5a.67.67,0,0,1,.48-1.25l1.3.51a.67.67,0,0,1-.43,1.27Zm-6.54-2.18a.66.66,0,0,1-.47-.81.67.67,0,0,1,.81-.48l.77.21.57.16a.66.66,0,1,1-.35,1.28h0l-.56-.15-.75-.2Z"/><path class="cls-10" d="M167,85.67a.42.42,0,0,1-.14-.06l-.58-.31a.67.67,0,0,1,.62-1.18l.6.32a.67.67,0,0,1-.5,1.23Z"/><path class="cls-10" d="M134.83,86.5a.67.67,0,0,1,.14-1.31l.68,0a.66.66,0,0,1,.69.64.68.68,0,0,1-.64.7l-.67,0A.44.44,0,0,1,134.83,86.5Z"/><path class="cls-10" d="M139.29,86.43a.65.65,0,0,1-.49-.65.66.66,0,0,1,.67-.66l1.28,0a.67.67,0,1,1,0,1.34l-1.25,0A.47.47,0,0,1,139.29,86.43Zm5.05.24a.66.66,0,0,1-.49-.7.67.67,0,0,1,.72-.61l1.27.12a.66.66,0,0,1,.6.73.68.68,0,0,1-.73.6l-1.25-.11Zm5,.58a.67.67,0,0,1-.49-.74.68.68,0,0,1,.76-.57l1.26.2a.66.66,0,0,1,.55.77.67.67,0,0,1-.76.55l-1.24-.19Zm5,.9a.67.67,0,0,1,.32-1.3l1.24.28a.63.63,0,0,1,.5.8.67.67,0,0,1-.8.5l-1.22-.27Zm6.12,1.58h0l-1.2-.36a.67.67,0,0,1,.36-1.29h0c.41.11.81.23,1.22.36a.67.67,0,0,1-.37,1.28Z"/><path class="cls-10" d="M164.69,91.15h-.06l-.62-.23a.67.67,0,0,1,.45-1.26l.63.23a.67.67,0,0,1-.4,1.27Z"/><path class="cls-10" d="M137.32,93.27A.67.67,0,0,1,137.5,92h.67a.67.67,0,0,1,.67.67.69.69,0,0,1-.68.67h-.66A.57.57,0,0,1,137.32,93.27Z"/><path class="cls-10" d="M142.4,93.44a.67.67,0,0,1,.23-1.31q.74,0,1.47.12a.67.67,0,1,1-.12,1.33l-1.45-.12Zm5.85.66a.66.66,0,0,1-.48-.75.67.67,0,0,1,.76-.56L150,93a.66.66,0,0,1,.54.77.65.65,0,0,1-.77.54l-1.44-.24ZM154,95.25a.66.66,0,0,1-.47-.8.65.65,0,0,1,.8-.49c.48.11,1,.24,1.44.36h0a.68.68,0,0,1,.47.82.67.67,0,0,1-.82.47L154,95.25Z"/><path class="cls-10" d="M160.31,97.1h-.05l-.62-.21a.67.67,0,0,1-.42-.85.69.69,0,0,1,.84-.42l.64.22a.67.67,0,0,1,.41.85A.66.66,0,0,1,160.31,97.1Z"/><path class="cls-5" d="M89.2,31.84S146.51,44,161.32,36.59,175,11.4,162,3.54,132.05,2,117.45,11.7C101.9,22,89.2,31.84,89.2,31.84Z"/><path class="cls-5" d="M173.11,76.38a1.06,1.06,0,0,1-.34-.06,1,1,0,0,1-.57-1.26,18.86,18.86,0,0,0,1.12-7.52,1,1,0,1,1,2-.11A20.81,20.81,0,0,1,174,75.74,1,1,0,0,1,173.11,76.38Z"/><path class="cls-5" d="M174.28,72.17a1,1,0,0,1-.68-1.68A5.89,5.89,0,0,1,179,69a1,1,0,0,1-.46,1.9,3.93,3.93,0,0,0-3.61,1A1,1,0,0,1,174.28,72.17Z"/><path class="cls-11" d="M310,244l-.08,1.39a127.77,127.77,0,0,1-84.1,1.59v-6.23H286.1Z"/><path class="cls-3" d="M221.77,247.84c-24.51-3.84-2.34-67.51-2.34-67.51l.46-58.25c9.16-6.47,25.92-12.9,58.43-12.25,0,0,31.17,7.8,42.9,18.54,0,0,14.53,100.86-4.53,126Z"/><path class="cls-2" d="M263.41,141.91a17.44,17.44,0,0,1-4.18-.5,18.93,18.93,0,0,1-13.93-19,1,1,0,0,1,2,.12,16.47,16.47,0,0,0,31.41,7.86,1,1,0,0,1,1.3-.48,1,1,0,0,1,.48,1.29A19,19,0,0,1,263.41,141.91Z"/><path class="cls-2" d="M221.19,146.35h-.05a1,1,0,0,1-.93-1,29.46,29.46,0,0,0-11.63-24.53,1,1,0,1,1,1.16-1.57,31,31,0,0,1,12.43,26.19A1,1,0,0,1,221.19,146.35Z"/><path class="cls-2" d="M316.69,254.32s1.24,6.2,0,11.39l-97.81-5.8,2.89-12.07Z"/><path class="cls-5" d="M260.07,23.36s33.81,8.09,40.36,20-32.6,42-32.6,42L251.12,46.47Z"/><path class="cls-5" d="M204,88.37c-14.72-18.17-16.44-45.27-6.32-59.9s39.18-27.93,60.6-13,14.62,44.28,14.62,44.28Z"/><path class="cls-6" d="M278.71,109.85,265.44,70.69s16.62-2.91,11.41-14.93c-4.63-10.71-16.13-5.37-18.81,2.34,0,0-10-40.79-42.32-26.65s-9.35,56.4-3.84,66.65c9.69,18.06,27.32,19.56,37.12,15.31l5.36,11.4s4.57,10,13.82,5.4C280.5,124,278.71,109.85,278.71,109.85Z"/><path class="cls-6" d="M208.91,85.89s-17.45-1.32-13.1,12c4.79,14.58,20.75.66,20.75.66Z"/><path class="cls-5" d="M237.83,65.22a3.77,3.77,0,1,1-5.28-.75A3.78,3.78,0,0,1,237.83,65.22Z"/><path class="cls-5" d="M221.58,73.36a3.77,3.77,0,1,1-5.28-.75A3.77,3.77,0,0,1,221.58,73.36Z"/><path class="cls-5" d="M228.2,86.85a2.23,2.23,0,0,1-.89-.19c-1.88-.82-2.48-4-1.95-10.41a1,1,0,1,1,1.94.16c-.64,7.73.74,8.43.8,8.46.27.12.92-.33,1.26-.68a1,1,0,0,1,1.44,1.32A4.06,4.06,0,0,1,228.2,86.85Z"/><path class="cls-5" d="M233.28,92.19a1,1,0,0,1-.82-.45,1,1,0,0,1,.3-1.35,12.1,12.1,0,0,0,5.12-6.81,1,1,0,1,1,1.88.53,14,14,0,0,1-6,7.93A.9.9,0,0,1,233.28,92.19Z"/><path class="cls-5" d="M212,98.39a1,1,0,0,1-.8-.42,49.3,49.3,0,0,1-4.83-8.7,1,1,0,1,1,1.79-.77,49.36,49.36,0,0,0,4.64,8.35,1,1,0,0,1-.8,1.54Z"/><path class="cls-5" d="M204,95.73a1,1,0,0,1-.34-1.89l4.73-1.76a1,1,0,1,1,.68,1.83l-4.73,1.76A1,1,0,0,1,204,95.73Z"/><path class="cls-5" d="M264.59,64.87a1,1,0,0,1-.9-.58,7.4,7.4,0,0,1,6.17-10.38,1,1,0,0,1,1.05.89,1,1,0,0,1-.9,1.06,5.44,5.44,0,0,0-4.53,7.64,1,1,0,0,1-.49,1.29A1,1,0,0,1,264.59,64.87Z"/><path class="cls-5" d="M268.16,61.51a.92.92,0,0,1-.39-.09l-3.4-1.49a1,1,0,0,1-.5-1.29,1,1,0,0,1,1.29-.5l3.4,1.49a1,1,0,0,1-.4,1.88Z"/><path class="cls-5" d="M224.65,58.27a1,1,0,0,1-.82-1.51A12.93,12.93,0,0,1,235.28,51a1,1,0,0,1,.92,1,1,1,0,0,1-1,.92,11.13,11.13,0,0,0-9.69,4.9A1,1,0,0,1,224.65,58.27Z"/><path class="cls-5" d="M206.3,69.65a.87.87,0,0,1-.31-.05,1,1,0,0,1-.61-1.24,9.47,9.47,0,0,1,11-5.93,1,1,0,1,1-.5,1.89A7.46,7.46,0,0,0,207.23,69,1,1,0,0,1,206.3,69.65Z"/><path class="cls-5" d="M249,113.41c9.06-4.44,14.43-17.65,14.43-17.65s.49,15-11.77,23.3Z"/><path class="cls-8" d="M241.92,79.45a5.43,5.43,0,1,0-.14-7.68A5.43,5.43,0,0,0,241.92,79.45Z"/><path class="cls-8" d="M214.27,96.52a5.42,5.42,0,1,0-.14-7.68A5.42,5.42,0,0,0,214.27,96.52Z"/><path class="cls-7" d="M252.52,76.23,258.36,59l.93-3.47S255,61.8,250,77.8Z"/><polygon class="cls-7" points="265.44 70.69 262.63 85.86 264.45 86.36 266.93 70.34 265.44 70.69"/><path class="cls-7" d="M211.51,97.61s11.67-11.08,15.09-13c3-1.7,21.67-7.18,25.92-8.35,4.11,3.1,11.93,10.12,11.93,10.12.27,9-2.84,21.29-16.21,27.41C224,124.83,211.51,97.61,211.51,97.61Z"/><path class="cls-12" d="M246.88,86l-.65.11a.67.67,0,0,1-.23-1.32l.67-.11a.67.67,0,0,1,.49,1.2A.7.7,0,0,1,246.88,86Zm-4.41.9a.66.66,0,0,0,.25-.72.67.67,0,0,0-.82-.47c-.45.13-.9.25-1.34.39A.67.67,0,0,0,241,87.4l1.3-.38A.62.62,0,0,0,242.47,86.92Zm-5.23,1.75a.67.67,0,0,0-.64-1.17c-.43.18-.86.35-1.29.54a.67.67,0,0,0,.53,1.23c.42-.18.84-.36,1.26-.52Zm-5,2.32a.66.66,0,0,0,.2-.85.67.67,0,0,0-.9-.28l-1.23.68a.67.67,0,0,0-.25.91.68.68,0,0,0,.92.25c.39-.23.79-.45,1.19-.66Zm-10.09,7.18.07,0c.33-.31.67-.62,1-.91a.67.67,0,0,0-.88-1l-1,.93a.67.67,0,0,0,.84,1Zm5.38-4.31a.66.66,0,0,0,.16-.92.67.67,0,0,0-.93-.17l-.65.46-.48.35a.67.67,0,1,0,.78,1.08h0l.48-.34.63-.45Zm-8.74,7.75a.52.52,0,0,0,.11-.1l.44-.49a.67.67,0,1,0-1-.9l-.45.5a.67.67,0,0,0,.89,1Zm30.49-10.38a.65.65,0,0,0,.24-.74.66.66,0,0,0-.84-.44l-.64.21a.67.67,0,0,0,.42,1.27l.63-.2Zm-4.21,1.49a.67.67,0,0,0-.63-1.17l-1.18.47a.66.66,0,0,0-.37.87.67.67,0,0,0,.87.37l1.16-.46Zm-4.65,2a.67.67,0,0,0-.67-1.15l-1.16.55a.66.66,0,0,0-.31.89.68.68,0,0,0,.9.31l1.13-.54A.3.3,0,0,0,240.42,94.69ZM235.9,97a.67.67,0,0,0-.7-1.13l-1.12.62a.67.67,0,0,0-.25.91.66.66,0,0,0,.91.25l1.1-.61Zm-4.35,2.57a.67.67,0,0,0,.18-.9.68.68,0,0,0-.93-.21l-1.07.69a.65.65,0,0,0-.19.93.67.67,0,0,0,.93.19l1.05-.68Zm-5.19,3.6h0l1-.75a.67.67,0,0,0-.78-1.08h0l-1,.77a.66.66,0,0,0-.13.93A.67.67,0,0,0,226.36,103.14ZM222.88,106l0,0,.51-.43a.67.67,0,0,0-.86-1l-.51.43a.67.67,0,0,0,.82,1.06Zm26.4-7.5a.66.66,0,0,0,.24-.77.67.67,0,0,0-.86-.4l-.63.23a.67.67,0,0,0-.39.86.67.67,0,0,0,.86.39l.62-.23A.8.8,0,0,0,249.28,98.45Zm-4.7,1.92a.68.68,0,0,0,.22-.82.66.66,0,0,0-.89-.33l-1.34.62a.66.66,0,0,0-.32.89.68.68,0,0,0,.89.32l1.32-.62ZM239.32,103a.67.67,0,0,0-.71-1.13l-1.29.74a.67.67,0,0,0-.24.91.66.66,0,0,0,.91.24l1.27-.72Zm-5,3.08a.67.67,0,0,0-.76-1.1c-.42.28-.82.56-1.23.85h0a.67.67,0,0,0,.77,1.09l1.2-.83ZM229.05,110l0,0,.51-.42a.67.67,0,0,0,.1-.94.72.72,0,0,0-.94-.1l-.52.43a.66.66,0,0,0-.09.94A.67.67,0,0,0,229.05,110Z"/><path class="cls-5" d="M201.71,40.18C214,53.27,238.81,61.38,258,58.1l-5.25-38.58L202.18,35.39Z"/><path class="cls-1" d="M208.56,184.92s-21.53,29.87-6.3,41.25,29.22-5.95,29.22-5.95Z"/><path class="cls-1" d="M185.51,243.42a16.39,16.39,0,0,0,20.17,2.29c8.11-5.31,8.68-17.12,2.66-24.25-7.86-9.32-22.58-5.51-26.28,5.75A16.46,16.46,0,0,0,185.51,243.42Z"/><path class="cls-1" d="M164.56,248.88c-1.56-4.4,26.71-18.46,32.66-14.4s2.93,33.67-1.43,34.59-5.71-14.15-5.71-14.15-2.51,7.27-9.07,6.81,1.56-13.63,1.56-13.63S166.38,254,164.56,248.88Z"/><path class="cls-1" d="M274.31,171.55s27.21,24.7,17.15,43.43c-9,16.75-29.76,1.94-29.76,1.94Z"/><path class="cls-1" d="M271,156.61c14.66,24.87,5.41,64.3-32.1,66.46-17.52,1-37.49-6.58-40.83-28.62-3.21-21.24,3.18-42.1,21.07-52.3,12.49-7.12,29.06-4.3,40.77,3.09A33.39,33.39,0,0,1,271,156.61Z"/><polygon class="cls-13" points="184.57 327.36 180.71 375.22 196.01 375.22 200.45 330.26 184.57 327.36"/><path class="cls-14" d="M266.11,239.13c5.31,3.3,36.22,19.07,40.64,34.36,4.53,15.63,7.49,58,7.49,58l-24,3,1.28,40.75h-96.9l3.52-41.77L180.71,328s6.65-58.35,11.49-65.81,40.66-23.09,40.66-23.09Z"/><polygon class="cls-6" points="307.95 332.15 286.73 334.77 288.52 375.22 311.5 375.22 307.95 332.15"/><polygon class="cls-1" points="286.81 336.66 286.73 334.77 307.95 332.15 308.29 336.48 286.81 336.66"/><path class="cls-15" d="M197.69,330.73h-.13a1,1,0,0,1-.84-1.1l6.64-53.41a1,1,0,0,1,1.09-.85,1,1,0,0,1,.85,1.09l-6.64,53.42A1,1,0,0,1,197.69,330.73Z"/><path class="cls-7" d="M236.32,235.26s-5.69,2.53-8.28,6.42c-2.34,3.52-6.77,26.27.22,25.28,3-.42,15.08-11.13,15.08-11.13s13.49,13.53,16.87,13,12.14-30.44,1.29-34.33C254,231.86,236.32,235.26,236.32,235.26Z"/><path class="cls-6" d="M260.82,238.26,263.44,200s15.25,3.45,15.09-8.68c-.14-10.82-11.87-10.36-16.91-4.72,0,0,6-38.46-26.68-37.89s-28.12,44.88-27.07,55.61c1.84,18.9,16.38,26.48,26.27,26.34l.51,11.66s.34,10.21,9.89,9.55C257.28,251,260.82,238.26,260.82,238.26Z"/><path class="cls-1" d="M241.7,185.7a3.49,3.49,0,1,1-4.25-2.52A3.49,3.49,0,0,1,241.7,185.7Z"/><path class="cls-1" d="M224.11,188.44a3.5,3.5,0,1,1-4.25-2.52A3.51,3.51,0,0,1,224.11,188.44Z"/><path class="cls-16" d="M229.84,201.37a1,1,0,0,0,.79-.83.94.94,0,0,0-.84-1c-1.77-.19-2.72-.6-3.18-1.37-.72-1.19-.38-3.59,1-6.92a.92.92,0,0,0-.52-1.22.94.94,0,0,0-1.22.51c-1.65,4.07-1.93,6.8-.85,8.6s2.88,2.08,4.59,2.26Z"/><path class="cls-16" d="M228.77,207h0a13.05,13.05,0,0,0,7.94-4.66.94.94,0,1,0-1.46-1.18,11.14,11.14,0,0,1-6.79,4,1,1,0,0,0-.77,1.08A.93.93,0,0,0,228.77,207Z"/><path class="cls-16" d="M265.29,194.86a1,1,0,0,0,.79-1,5,5,0,0,1,6.56-4.88.94.94,0,0,0,.58-1.79,6.89,6.89,0,0,0-9,6.71,1,1,0,0,0,1,.92Z"/><path class="cls-16" d="M269.55,193.25a1,1,0,0,0,.5-.24.94.94,0,0,0,0-1.33l-2.37-2.49a.94.94,0,0,0-1.36,1.29l2.37,2.49A.91.91,0,0,0,269.55,193.25Z"/><path class="cls-16" d="M244.47,174.33a1.13,1.13,0,0,0,.82-.61,1.11,1.11,0,0,0-.51-1.47,12.21,12.21,0,0,0-12.05.87,1.1,1.1,0,0,0,1.24,1.82,10.12,10.12,0,0,1,9.85-.71A1.12,1.12,0,0,0,244.47,174.33Z"/><path class="cls-16" d="M224.08,177.29a1.06,1.06,0,0,0,.7-.41,1.1,1.1,0,0,0-.19-1.55,8.9,8.9,0,0,0-11.82,1.16,1.1,1.1,0,0,0,1.66,1.45,6.73,6.73,0,0,1,8.81-.87A1.12,1.12,0,0,0,224.08,177.29Z"/><path class="cls-1" d="M234.14,230.7c6.55.37,18.91-9,18.91-9s-4.79,10-18.75,12.59Z"/><path class="cls-8" d="M240.21,199.14a5,5,0,1,0,2.63-6.62A5,5,0,0,0,240.21,199.14Z"/><path class="cls-8" d="M210.47,203.86a5,5,0,1,0,2.62-6.61A5,5,0,0,0,210.47,203.86Z"/><path class="cls-1" d="M261.62,186.64c-1.75,2.43-1.55,18.47-3.27,17.21s-3.21-29-3.21-29-14.39-7.73-17.1-17.82c0,0-8.09,28.1-33.06,29.19,0,0-.13-43.34,33-42s32.87,30.46,32.87,30.46Z"/><path class="cls-7" d="M245.28,143.2C270.83,151.21,263,180,263,180s2.18-18.07-17.69-28c-17.18-8.62-35.68,1.31-40.83,11.75C207.69,156.32,219.51,135.11,245.28,143.2Z"/><path class="cls-7" d="M251.7,200l9.71-12.15,3.87-3.93S262,183.82,249,200.41Z"/><polygon class="cls-7" points="263.44 200.04 256.11 212.32 258.06 213.37 265.19 200.32 263.44 200.04"/><path class="cls-7" d="M207.74,203.06s14.67-5.54,18.38-5.9c3.23-.31,21.46,2.22,25.58,2.86,2.34,4.27,6.36,13.35,6.36,13.35-3.27,7.88-10.71,17.25-24.61,17.33C208.3,230.86,207.74,203.06,207.74,203.06Z"/><path class="cls-12" d="M243,206.27l-.6-.16a.63.63,0,1,1,.31-1.22l.62.16a.61.61,0,0,1,.44.77.63.63,0,0,1-.48.46A1,1,0,0,1,243,206.27Zm-4.15-.93a.65.65,0,0,0,.5-.52.64.64,0,0,0-.53-.73l-1.31-.19a.64.64,0,0,0-.16,1.26c.43.05.85.11,1.27.18Zm-5.19-.53a.62.62,0,0,0,.51-.59.64.64,0,0,0-.6-.66l-1.33,0a.64.64,0,0,0-.64.62.65.65,0,0,0,.63.65l1.28,0A.38.38,0,0,0,233.7,204.81Zm-5.21.07a.63.63,0,0,0,.51-.66.64.64,0,0,0-.68-.59l-1.31.11a.62.62,0,0,0-.57.69.63.63,0,0,0,.69.57c.43-.05.85-.08,1.28-.11ZM217,207.15l.08,0c.41-.14.81-.27,1.22-.39a.63.63,0,0,0-.36-1.21l-1.26.4a.63.63,0,0,0-.4.8A.62.62,0,0,0,217,207.15Zm6.31-1.62a.64.64,0,0,0,.5-.73.62.62,0,0,0-.74-.51l-.74.14-.55.11a.64.64,0,0,0-.49.75.63.63,0,0,0,.74.49h0l.54-.11.72-.14Zm-10.54,3.28.14,0,.57-.26a.64.64,0,0,0,.32-.83.63.63,0,0,0-.83-.32l-.59.26a.63.63,0,0,0-.31.83A.62.62,0,0,0,212.78,208.81Zm30.3,2.88a.65.65,0,0,0,.51-.54.63.63,0,0,0-.56-.7l-.63-.07a.63.63,0,1,0-.14,1.25l.63.07A.41.41,0,0,0,243.08,211.69Zm-4.2-.35a.63.63,0,0,0-.09-1.25l-1.2-.05a.63.63,0,0,0-.66.6.64.64,0,0,0,.61.66l1.18,0Zm-4.77-.1A.63.63,0,0,0,234,210l-1.2,0a.64.64,0,0,0-.62.65.63.63,0,0,0,.65.61l1.19,0Zm-4.78.21a.63.63,0,0,0,.51-.67.64.64,0,0,0-.68-.58l-1.2.11a.63.63,0,1,0,.12,1.25l1.18-.1Zm-4.75.53a.63.63,0,0,0-.21-1.25l-1.19.18a.61.61,0,0,0-.53.73.63.63,0,0,0,.73.52l1.17-.18Zm-5.87,1.09h0l1.16-.26a.63.63,0,0,0-.26-1.24h0l-1.17.25a.64.64,0,0,0-.48.76A.63.63,0,0,0,218.71,213.07Zm-4.09,1.07.06,0,.6-.17a.63.63,0,0,0,.43-.78.62.62,0,0,0-.78-.43l-.61.17a.63.63,0,0,0,.3,1.23Zm25.67,3.78a.66.66,0,0,0,.51-.58.63.63,0,0,0-.59-.67l-.63,0a.64.64,0,0,0-.68.59.64.64,0,0,0,.59.67l.63.05Zm-4.8-.18a.62.62,0,0,0,.51-.62.64.64,0,0,0-.64-.63l-1.4,0a.63.63,0,0,0-.62.64.64.64,0,0,0,.65.62l1.38,0A.25.25,0,0,0,235.49,217.74Zm-5.56.24a.63.63,0,0,0,.51-.67.64.64,0,0,0-.68-.58l-1.4.14a.63.63,0,0,0,.13,1.26l1.37-.14Zm-5.51.71a.63.63,0,0,0-.23-1.24l-1.38.25h0a.63.63,0,0,0-.49.74.62.62,0,0,0,.74.5l1.35-.24Zm-6,1.34h0l.61-.16a.65.65,0,0,0,.45-.77.66.66,0,0,0-.78-.45l-.61.16a.63.63,0,0,0,.29,1.23Z"/><polygon class="cls-6" points="192.22 330.51 196.08 375.22 180.78 375.22 176.34 333.23 192.22 330.51"/><path class="cls-9" d="M110.68,247.84C105.37,250.93,74.46,265.71,70,280c-4.52,14.65-7.49,54.32-7.49,54.32l24,2.83-1.28,38h96.9l-3.53-39,17.47-5.08s-8.72-55.26-13.56-62.25-38.59-21-38.59-21Z"/><polygon class="cls-6" points="68.84 335 90.06 337.46 88.27 375.22 65.29 375.22 68.84 335"/><polygon class="cls-1" points="89.98 339.23 90.06 337.46 68.84 335 68.5 339.06 89.98 339.23"/><path class="cls-10" d="M179.1,333.73a1,1,0,0,1-1-.85l-6.64-50.05a1,1,0,0,1,.84-1.1,1,1,0,0,1,1.1.85l6.64,50.05a1,1,0,0,1-.84,1.1Z"/><path class="cls-7" d="M140.16,241.6s4,.9,6.15,6c1.64,3.9,4.77,25.09.75,26.66C142.77,275.89,131,258.9,131,258.9s-13.25,17.31-16.63,16.83-12.14-30.44-1.29-34.33C120.56,238.71,140.16,241.6,140.16,241.6Z"/><path class="cls-1" d="M165.62,205.94s22.84-19.43.43-40.48c0,0,11.56,1.85,12.26.33s-16.26-13.49-33-18.85c-15.75-5-29,.42-33.51,4.93s-4.41,12-4.41,12c-10.71-1-11.53,9.51-9.83,15.78,2.22,8.18,15.76,39.63,15.76,39.63Z"/><path class="cls-6" d="M113.74,243.38l-2.62-38.22s-15.25,3.45-15.1-8.69c.14-10.81,11.88-10.35,16.92-4.71,0,0-6-38.46,26.68-37.89s28.12,44.88,27.07,55.61c-1.85,18.9-16.38,26.48-26.28,26.34l-.51,11.66s-.33,10.21-9.89,9.55C117.27,256.15,113.74,243.38,113.74,243.38Z"/><path class="cls-1" d="M132.86,190.81a3.49,3.49,0,1,0,4.25-2.52A3.49,3.49,0,0,0,132.86,190.81Z"/><path class="cls-1" d="M150.45,193.56A3.49,3.49,0,1,0,154.7,191,3.49,3.49,0,0,0,150.45,193.56Z"/><path class="cls-16" d="M144.72,206.49a1,1,0,0,1-.79-.83.94.94,0,0,1,.84-1c1.76-.19,2.72-.6,3.18-1.37.71-1.2.37-3.59-1-6.92a.94.94,0,0,1,.51-1.23,1,1,0,0,1,1.23.52c1.65,4.06,1.92,6.8.84,8.6s-2.88,2.08-4.59,2.26Z"/><path class="cls-16" d="M145.79,212.16h0a13,13,0,0,1-7.94-4.67.93.93,0,0,1,.14-1.31.94.94,0,0,1,1.32.14,11.16,11.16,0,0,0,6.79,4,.94.94,0,0,1-.3,1.85Z"/><path class="cls-16" d="M109.27,200a.92.92,0,0,1-.79-.94,5,5,0,0,0-6.56-4.89,1,1,0,0,1-1.19-.6.94.94,0,0,1,.6-1.18,6.88,6.88,0,0,1,9,6.71.94.94,0,0,1-1,.92Z"/><path class="cls-16" d="M105,198.37a.94.94,0,0,1-.53-1.57l2.37-2.49a.93.93,0,1,1,1.35,1.29l-2.36,2.49A1,1,0,0,1,105,198.37Z"/><path class="cls-16" d="M130.09,179.45a1.11,1.11,0,0,1-.82-.61,1.09,1.09,0,0,1,.51-1.47,12.22,12.22,0,0,1,12.05.87,1.1,1.1,0,0,1,.29,1.53,1.12,1.12,0,0,1-1.53.29,10.12,10.12,0,0,0-9.85-.71A1.13,1.13,0,0,1,130.09,179.45Z"/><path class="cls-16" d="M150.47,182.41a1.08,1.08,0,0,1-.7-.42,1.1,1.1,0,0,1,.2-1.54,8.87,8.87,0,0,1,11.81,1.16,1.09,1.09,0,0,1-.1,1.55,1.11,1.11,0,0,1-1.56-.11,6.7,6.7,0,0,0-8.8-.86A1.15,1.15,0,0,1,150.47,182.41Z"/><path class="cls-1" d="M140.42,235.82c-6.55.36-18.67-8.93-18.67-8.93s7,11.91,18.41,14.71Z"/><path class="cls-8" d="M134.34,204.26a5,5,0,1,1-2.62-6.62A5,5,0,0,1,134.34,204.26Z"/><path class="cls-8" d="M164.08,209a5,5,0,1,1-2.62-6.61A5,5,0,0,1,164.08,209Z"/><path class="cls-1" d="M112.94,191.76c1.75,2.43,1.54,18.47,3.27,17.21s3.21-29,3.21-29,14.38-7.72,17.1-17.81c0,0,8.08,28.09,33.06,29.19,0,0,.13-43.34-33-42s-32.88,30.46-32.88,30.46Z"/><path class="cls-7" d="M123.23,205.4l-9.72-12.14-3.16-3.62s4.08,2,15.63,16.15Z"/><polygon class="cls-7" points="111.11 205.16 118.82 217.7 116.87 218.75 109.58 205.46 111.11 205.16"/><path class="cls-7" d="M166.84,208s-14.33-5.09-18-5.45c-3.24-.31-21.46,2.22-25.58,2.86-2.34,4.27-6.36,13.35-6.36,13.35,3.27,7.89,10.7,17.25,24.61,17.33C166.62,236.24,166.84,208,166.84,208Z"/><path class="cls-12" d="M131.6,211.66a.65.65,0,0,1-.49-.46.63.63,0,0,1,.45-.77l.62-.16a.63.63,0,1,1,.3,1.22l-.59.16A1,1,0,0,1,131.6,211.66Zm4.66-.94,1.27-.18a.64.64,0,1,0-.16-1.26l-1.31.19a.64.64,0,0,0-.52.73.63.63,0,0,0,.5.52Zm5.12-.52c.42,0,.85,0,1.28,0a.64.64,0,0,0,0-1.27l-1.32,0a.63.63,0,0,0-.6.66.62.62,0,0,0,.5.59A.42.42,0,0,0,141.38,210.2Zm5.14.07,1.28.11a.64.64,0,0,0,.69-.57.63.63,0,0,0-.57-.69L146.6,209a.63.63,0,0,0-.16,1.25Zm12.12,1.84a.63.63,0,0,0-.4-.8l-1.26-.4a.63.63,0,0,0-.37,1.21l1.23.39.07,0A.64.64,0,0,0,158.64,212.11Zm-7-1.2.72.14.54.11h0a.63.63,0,0,0,.74-.49.64.64,0,0,0-.49-.75l-.55-.11-.75-.14a.63.63,0,0,0-.73.51.64.64,0,0,0,.5.73Zm11.23,2.92a.63.63,0,0,0-.32-.83l-.58-.26a.63.63,0,1,0-.51,1.15l.57.26.14,0A.63.63,0,0,0,162.85,213.83ZM132,217.08l.62-.07a.63.63,0,1,0-.13-1.25l-.63.07a.63.63,0,0,0-.06,1.24A.45.45,0,0,0,132,217.08Zm4.16-.35,1.19,0a.63.63,0,0,0,.6-.66.62.62,0,0,0-.65-.6l-1.21.05a.64.64,0,0,0-.59.67.62.62,0,0,0,.5.58Zm4.74-.1,1.18,0a.63.63,0,1,0,0-1.26l-1.21,0a.63.63,0,0,0-.64.62.64.64,0,0,0,.51.63Zm4.73.21,1.18.1a.63.63,0,0,0,.69-.57.62.62,0,0,0-.57-.68l-1.2-.11a.64.64,0,0,0-.68.58.62.62,0,0,0,.5.67Zm4.71.52,1.17.18a.62.62,0,0,0,.72-.52.6.6,0,0,0-.52-.73l-1.19-.18a.63.63,0,0,0-.72.54.64.64,0,0,0,.5.71ZM157,218a.63.63,0,0,0-.47-.76L155.3,217h0a.65.65,0,0,0-.75.49.64.64,0,0,0,.49.75l1.16.26h0A.62.62,0,0,0,157,218Zm4.08,1.1a.63.63,0,0,0-.43-.78l-.61-.17a.63.63,0,1,0-.34,1.21l.6.17.05,0A.64.64,0,0,0,161,219.07Zm-26.22,4.24.62-.05a.63.63,0,1,0-.08-1.26l-.63.05a.63.63,0,0,0-.59.67.65.65,0,0,0,.51.58Zm4.75-.17h1.38a.63.63,0,0,0,0-1.26l-1.4,0a.63.63,0,0,0-.12,1.25Zm5.5.23,1.37.14a.65.65,0,0,0,.7-.57.63.63,0,0,0-.56-.69l-1.4-.13a.63.63,0,0,0-.18,1.24Zm5.47.71,1.35.24a.63.63,0,0,0,.74-.5.63.63,0,0,0-.5-.74h0l-1.38-.25a.63.63,0,0,0-.73.52.62.62,0,0,0,.5.72Zm6.76.88a.64.64,0,0,0-.44-.78l-.62-.16a.66.66,0,0,0-.77.45.63.63,0,0,0,.45.77l.6.16h.05A.63.63,0,0,0,157.29,225Z"/><polygon class="cls-1" points="184.82 183.08 181.25 151.33 192.22 186.71 184.82 183.08"/><path class="cls-6" d="M31.94,163.63s-8.06,14.71-5,21.29,10.41,15.42,10.41,15.42L50.5,155.88l-12.85-2Z"/><path class="cls-4" d="M74,128.37C61.94,137-3,209.64.11,245.27s68.71,100,82.23,84.26l16.44-22.47s5-6.85-2.22-14-48.27-50.15-48.27-50.15l35.23-54.76Z"/><path class="cls-17" d="M85.12,175.59h-.06a1,1,0,0,1-.92-1,99.32,99.32,0,0,0-5.21-38.35,1,1,0,0,1,1.85-.64,101.51,101.51,0,0,1,5.32,39.12A1,1,0,0,1,85.12,175.59Z"/><path class="cls-17" d="M35,254.79h-.06a1,1,0,0,1-.91-1,11.71,11.71,0,0,1,6.26-9.4,10.65,10.65,0,0,0-10.77,1.45,1,1,0,1,1-1.26-1.49,12.42,12.42,0,0,1,14.85-.6,1,1,0,0,1,.4,1,1,1,0,0,1-.7.77A9.64,9.64,0,0,0,36,253.88,1,1,0,0,1,35,254.79Z"/><path class="cls-6" d="M103.89,313.22s32.47,10.61,34.44,14.66-17.27,0-17.27,0,25.44,17.66,25.17,21-26.35-11.49-26.35-11.49,23.26,15.92,22.82,18.76-26.76-12.25-26.76-12.25,24,16.61,21.87,18.36-25.35-11.51-25.35-11.51,18.23,22.51,16.71,24.47-19.44-18.85-26.74-25.4-12.38-16.73-12.38-16.73Z"/><path class="cls-17" d="M82.34,329.53s4.27,5.5,6.94,5.42,16-20.81,16.74-22.6-7.24-5.29-7.24-5.29Z"/><path class="cls-3" d="M321.22,128.37c9.37,11.5,52.81,98.7,40.45,132.25S269,338.94,260.12,320.21l-9.92-26s-3-7.92,5.81-12.89,59.79-35.65,59.79-35.65l-19.53-62.1Z"/><path class="cls-5" d="M281.38,52.41s28.38,12.11,32.86,21.35S309.13,93,309.13,93s12.42,4.18,13,16.27S312,128.37,312,128.37s6.4,7.36,5.23,15.77-10,13.62-18.15,11.11-22-12.94-13.12-27.46c0,0-18-2.34-8.8-18,0,0-15.77-17.38-8.09-29.17C279.36,64.84,281.38,52.41,281.38,52.41Z"/><path class="cls-2" d="M311.5,232.94a1,1,0,0,1-.88-.55c-3.45-7.09-5.78-18.58-7.83-28.73-.75-3.71-1.46-7.22-2.15-10.08-2-8.32-3.33-20.66,1.71-32.15a1,1,0,1,1,1.79.79c-4.82,11-3.53,22.87-1.6,30.91.7,2.88,1.41,6.41,2.17,10.14,1.93,9.54,4.33,21.4,7.67,28.27a1,1,0,0,1-.46,1.31A1,1,0,0,1,311.5,232.94Z"/><path class="cls-6" d="M247,301.68s-24.75,1.21-26.9,3.67,12.08,3.3,12.08,3.3-21.18,7.49-21.63,9.88,20.64-3,20.64-3-19.32,6.69-19.56,8.76,21.07-3.45,21.07-3.45-20,7-18.82,8.66,19.94-3.2,19.94-3.2-15,4.86-14.35,6.53,15.19-2.08,21.55-5.26,11.86-9.34,11.86-9.34Z"/><path class="cls-2" d="M260.12,320.21s-5.57,4.18-8.12,3.4-9.95-24.3-10.19-26.22,8.39-3.19,8.39-3.19Z"/><polygon class="cls-1" points="192.37 332.22 178.62 336.22 178.78 338.05 192.74 336.54 192.37 332.22"/><path class="cls-1" d="M284,237.29a16.38,16.38,0,0,0,20.17,2.3c8.11-5.32,8.67-17.13,2.66-24.26-7.87-9.32-22.58-5.51-26.29,5.75A16.46,16.46,0,0,0,284,237.29Z"/><path class="cls-1" d="M337.11,232.9c.35-4.65-30.62-10.79-35.3-5.31s6,33.25,10.48,33,1.78-15.15,1.78-15.15,4.34,6.34,10.54,4.19-5.09-12.75-5.09-12.75S336.71,238.34,337.11,232.9Z"/><path class="cls-6" d="M43.24,142.83s-11.64,12.53-13,17.84,2.46,20,5.43,18.53,2.63-12.55,2.63-12.55L50.5,152.6Z"/></g></g></svg>