<svg xmlns="http://www.w3.org/2000/svg" viewBox="0 0 727.9 123.12"><defs><style>.cls-1{fill:#ff430d;}.cls-2{fill:#ffc100;}.cls-3{fill:#ff8200;}.cls-4{fill:#fff;}</style></defs><g id="Layer_2" data-name="Layer 2"><g id="Layer_1-2" data-name="Layer 1"><circle class="cls-1" cx="54.72" cy="68.4" r="25.09"/><path class="cls-2" d="M79.81,19.76c0,.25,0,.51,0,.76V45.15q-.43-.48-.9-.93A34.2,34.2,0,1,0,30.54,92.58a34.76,34.76,0,0,0,4.21,3.59,26,26,0,0,0-6,16.68,26.29,26.29,0,0,0,.29,3.86A54.73,54.73,0,0,1,79.81,19.76Z"/><path class="cls-3" d="M109.44,0V68.4A54.75,54.75,0,0,1,40,121.11a16.89,16.89,0,0,1,3.12-20.53A34.22,34.22,0,0,0,88.92,68.4V20.52A20.52,20.52,0,0,1,109.44,0Z"/><path class="cls-4" d="M205.4,61.6a22.16,22.16,0,0,1-2.66,10.92A20,20,0,0,1,196,79.91a18.83,18.83,0,0,1-7.4,2.83,54.62,54.62,0,0,1-8.51.63H166.44V39.75H180a59.93,59.93,0,0,1,8.62.58,19,19,0,0,1,7.53,2.84,19.62,19.62,0,0,1,6.79,7.43A23.07,23.07,0,0,1,205.4,61.6Zm-11.25-.09a16.71,16.71,0,0,0-1.48-7.36A11,11,0,0,0,183.45,48q-2.44-.12-5.85-.12h-.2V75.2h.2q3.69,0,6.23-.14a9.92,9.92,0,0,0,4.82-1.56,11,11,0,0,0,4.1-4.69A17,17,0,0,0,194.15,61.51Z"/><path class="cls-4" d="M213.19,83.37l14.74-43.62h11.95l14.74,43.62H243.34l-2.73-8.91H226.9l-2.72,8.91Zm25-16.82-4.45-14.38L229.3,66.55Z"/><path class="cls-4" d="M278.43,84.16a35.56,35.56,0,0,1-8.8-1,44.18,44.18,0,0,1-7.05-2.4V70.42h1a24.46,24.46,0,0,0,7.23,4.28,21.82,21.82,0,0,0,7.68,1.49A20.74,20.74,0,0,0,281,76a8.51,8.51,0,0,0,2.48-.65A5.31,5.31,0,0,0,285.37,74a3.4,3.4,0,0,0,.79-2.36,3.25,3.25,0,0,0-1.28-2.66,8.28,8.28,0,0,0-3.08-1.5c-1.49-.39-3.07-.76-4.76-1.11A37.3,37.3,0,0,1,272.31,65q-5.07-1.78-7.27-4.8a12.57,12.57,0,0,1-2.2-7.56A11.75,11.75,0,0,1,268,42.75Q273.22,39,281,39a38.24,38.24,0,0,1,7.75.79,33.31,33.31,0,0,1,6.9,2.14v10h-1a21.75,21.75,0,0,0-5.93-3.52,18.74,18.74,0,0,0-7.19-1.43,14.38,14.38,0,0,0-2.58.2,10.1,10.1,0,0,0-2.41.79,4.93,4.93,0,0,0-1.77,1.39,3.21,3.21,0,0,0-.74,2.07A3.26,3.26,0,0,0,275.22,54a12,12,0,0,0,4.59,1.77l4.23,1A38.33,38.33,0,0,1,288.39,58a14.73,14.73,0,0,1,6.75,4.41,11.32,11.32,0,0,1,2.22,7.31,12.59,12.59,0,0,1-5.12,10.46Q287.14,84.16,278.43,84.16Z"/><path class="cls-4" d="M304.26,83.37,319,39.75H331l14.74,43.62H334.41l-2.72-8.91H318l-2.72,8.91Zm25-16.82-4.45-14.38-4.45,14.38Z"/><path class="cls-4" d="M417.84,83.37H404.59L392.7,65.65l-2.14,3V83.37h-11V39.75h11V59.11l13.95-19.36h12.68L401.63,60Z"/><path class="cls-4" d="M467.72,83.37H454.36l-12.15-16h-3.93v16h-10.9V39.75h17.55a39,39,0,0,1,6.33.45,13.47,13.47,0,0,1,5,1.89A11.51,11.51,0,0,1,460,45.88a11.26,11.26,0,0,1,1.38,5.85,13.58,13.58,0,0,1-2.26,8.13,16,16,0,0,1-6,5ZM450.09,53.11a5.94,5.94,0,0,0-.63-2.83,4.16,4.16,0,0,0-2.1-1.83,7.63,7.63,0,0,0-2.28-.56c-.84-.08-1.89-.12-3.14-.12h-3.66V59.52h3.13a22.66,22.66,0,0,0,3.89-.28A5.81,5.81,0,0,0,448,58.06a5.1,5.1,0,0,0,1.56-2A7.18,7.18,0,0,0,450.09,53.11Z"/><path class="cls-4" d="M477,83.37V39.75h29.5v8.32H487.84v7.64H505V64H487.84v11h18.61v8.32Z"/><path class="cls-4" d="M515.17,83.37l14.74-43.62h12L556.6,83.37H545.32l-2.73-8.91H528.88l-2.72,8.91Zm25-16.82-4.45-14.38-4.45,14.38Z"/><path class="cls-4" d="M575.31,83.37V48.07H562.42V39.75h36.74v8.32H586.27v35.3Z"/><path class="cls-4" d="M631.41,83.37h-23.5V75.75h6.27V47.36h-6.27V39.75h23.5v7.61h-6.27V75.75h6.27Z"/><path class="cls-4" d="M681.12,39.75l-15,43.62H654.7l-15-43.62h11.36l9.49,29.56,9.5-29.56Z"/><path class="cls-4" d="M686.48,83.37l14.73-43.62h12L727.9,83.37H716.62l-2.72-8.91H700.19l-2.73,8.91Zm25-16.82L707,52.17l-4.45,14.38Z"/></g></g></svg>